<?xml version="1.0" standalone="no"?>
<!DOCTYPE svg PUBLIC "-//W3C//DTD SVG 20010904//EN"
 "http://www.w3.org/TR/2001/REC-SVG-20010904/DTD/svg10.dtd">
<svg version="1.0" xmlns="http://www.w3.org/2000/svg"
 width="512.000000pt" height="512.000000pt" viewBox="0 0 512.000000 512.000000"
 preserveAspectRatio="xMidYMid meet">

<g transform="translate(0.000000,512.000000) scale(0.100000,-0.100000)"
fill="#000000" stroke="none">
<path d="M2043 1868 l-563 -563 0 -207 c0 -219 8 -285 45 -358 30 -59 102
-126 151 -139 27 -7 329 -11 935 -11 l895 0 27 27 c71 75 101 222 101 503 1
119 -4 235 -11 276 -20 111 -50 199 -82 233 l-29 31 -451 0 -451 0 -2 385 -3
385 -562 -562z"/>
</g>
</svg>
